<?xml version="1.0" standalone="no"?>
<!DOCTYPE svg PUBLIC "-//W3C//DTD SVG 1.1//EN" "http://www.w3.org/Graphics/SVG/1.1/DTD/svg11.dtd">
<svg width="32" height="33" viewBox="0 0 32 33" fill="none" xmlns="http://www.w3.org/2000/svg">
  <path d="M30.9988 14.6503L3.36686 14.6503L16.3819 1.70197C16.7824 1.30151 16.7824 0.700811 16.3819 0.300348C15.9815 -0.100116 15.3808 -0.100116 14.9803 0.300348L0.29664 14.984C0.029664 15.251 -0.103824 15.7182 0.0964079 16.0519C0.163152 16.2521 0.363384 16.4524 0.496871 16.5191C0.563615 16.5859 0.563615 16.6526 0.630359 16.7194L15.6477 31.7367C15.848 31.937 16.1149 32.0037 16.3819 32.0037C16.6489 32.0037 16.9159 31.937 17.1161 31.7367C17.5166 31.3363 17.5166 30.7356 17.1161 30.3351L3.36686 16.6526L30.9988 16.6526C31.5328 16.6526 32 16.1854 32 15.6514C32 15.1175 31.5328 14.6503 30.9988 14.6503Z" fill="#595959"/>
</svg>
